{
  "accessors": [
    {
      "bufferView": 2,
      "componentType": 5126,
      "count": 8136,
      "max": [
        1.3155250549316406,
        1.9142570495605469,
        0.047605000436306
      ],
      "min": [
        0.01544100046157837,
        -0.5609920024871826,
        -0.03918600082397461
      ],
      "type": "VEC3"
    },
    {
      "bufferView": 2,
      "byteOffset": 97632,
      "componentType": 5126,
      "count": 8136,
      "max": [
        1.0,
        1.0,
        1.0
      ],
      "min": [
        -1.0,
        -1.0,
        -1.0
      ],
      "type": "VEC3"
    },
    {
      "bufferView": 1,
      "componentType": 5126,
      "count": 8136,
      "max": [
        0.875,
        0.8991450071334839
      ],
      "min": [
        0.125,
        0.0
      ],
      "type": "VEC2"
    },
    {
      "bufferView": 0,
      "componentType": 5125,
      "count": 11004,
      "type": "SCALAR"
    },
    {
      "bufferView": 2,
      "byteOffset": 195264,
      "componentType": 5126,
      "count": 4,
      "max": [
        2.737307071685791,
        1.850000023841858,
        2.3582589626312256
      ],
      "min": [
        1.7099419832229614,
        -1.8077069520950317,
        0.0015510000521317124
      ],
      "type": "VEC3"
    },
    {
      "bufferView": 2,
      "byteOffset": 195312,
      "componentType": 5126,
      "count": 4,
      "max": [
        -0.2985260486602783,
        0.577350378036499,
        0.759966254234314
      ],
      "min": [
        -0.759966254234314,
        -0.577350378036499,
        -0.2985260486602783
      ],
      "type": "VEC3"
    },
    {
      "bufferView": 1,
      "byteOffset": 65088,
      "componentType": 5126,
      "count": 4,
      "max": [
        1.0044000148773193,
        1.3143539428710938
      ],
      "min": [
        -0.0033140000887215137,
        -0.32764700055122375
      ],
      "type": "VEC2"
    },
    {
      "bufferView": 0,
      "byteOffset": 44016,
      "componentType": 5125,
      "count": 6,
      "type": "SCALAR"
    },
    {
      "bufferView": 2,
      "byteOffset": 195360,
      "componentType": 5126,
      "count": 102,
      "max": [
        1.513414978981018,
        1.9001189470291138,
        0.008387000299990177
      ],
      "min": [
        1.3385330438613892,
        -1.8674930334091187,
        -0.002440999960526824
      ],
      "type": "VEC3"
    },
    {
      "bufferView": 2,
      "byteOffset": 196584,
      "componentType": 5126,
      "count": 102,
      "max": [
        1.0,
        1.0,
        1.0
      ],
      "min": [
        -0.9963895678520203,
        -1.0,
        -1.0
      ],
      "type": "VEC3"
    },
    {
      "bufferView": 1,
      "byteOffset": 65120,
      "componentType": 5126,
      "count": 102,
      "max": [
        1.054839015007019,
        1.172961950302124
      ],
      "min": [
        1.0214500427246094,
        0.8003209829330444
      ],
      "type": "VEC2"
    },
    {
      "bufferView": 0,
      "byteOffset": 44040,
      "componentType": 5125,
      "count": 174,
      "type": "SCALAR"
    },
    {
      "bufferView": 2,
      "byteOffset": 197808,
      "componentType": 5126,
      "count": 2937,
      "max": [
        1.6079750061035156,
        1.9201200008392334,
        0.041085001081228256
      ],
      "min": [
        -0.7887930274009705,
        -1.8771109580993652,
        -0.0335329994559288
      ],
      "type": "VEC3"
    },
    {
      "bufferView": 2,
      "byteOffset": 233052,
      "componentType": 5126,
      "count": 2937,
      "max": [
        1.0,
        1.0,
        1.0
      ],
      "min": [
        -1.0,
        -1.0,
        -1.0
      ],
      "type": "VEC3"
    },
    {
      "bufferView": 1,
      "byteOffset": 65936,
      "componentType": 5126,
      "count": 2937,
      "max": [
        1.0562210083007813,
        1.1733980178833008
      ],
      "min": [
        0.0,
        -1.8999999156221747e-05
      ],
      "type": "VEC2"
    },
    {
      "bufferView": 0,
      "byteOffset": 44736,
      "componentType": 5125,
      "count": 4098,
      "type": "SCALAR"
    },
    {
      "bufferView": 2,
      "byteOffset": 268296,
      "componentType": 5126,
      "count": 65532,
      "max": [
        1.6167570352554321,
        1.2493300437927246,
        0.03923000022768974
      ],
      "min": [
        1.3515379428863525,
        -1.342818021774292,
        0.007009000051766634
      ],
      "type": "VEC3"
    },
    {
      "bufferView": 2,
      "byteOffset": 1054680,
      "componentType": 5126,
      "count": 65532,
      "max": [
        1.0,
        1.0,
        1.0
      ],
      "min": [
        -1.0,
        -1.0,
        -1.0
      ],
      "type": "VEC3"
    },
    {
      "bufferView": 1,
      "byteOffset": 89432,
      "componentType": 5126,
      "count": 65532,
      "max": [
        1.0000050067901611,
        1.0
      ],
      "min": [
        0.0,
        0.0
      ],
      "type": "VEC2"
    },
    {
      "bufferView": 0,
      "byteOffset": 61128,
      "componentType": 5125,
      "count": 102981,
      "type": "SCALAR"
    },
    {
      "bufferView": 2,
      "byteOffset": 1841064,
      "componentType": 5126,
      "count": 32636,
      "max": [
        1.6167570352554321,
        0.5813279747962952,
        0.036201998591423035
      ],
      "min": [
        1.3515379428863525,
        -1.3604830503463745,
        0.007009000051766634
      ],
      "type": "VEC3"
    },
    {
      "bufferView": 2,
      "byteOffset": 2232696,
      "componentType": 5126,
      "count": 32636,
      "max": [
        1.0,
        1.0,
        1.0
      ],
      "min": [
        -1.0,
        -1.0,
        -1.0
      ],
      "type": "VEC3"
    },
    {
      "bufferView": 1,
      "byteOffset": 613688,
      "componentType": 5126,
      "count": 32636,
      "max": [
        1.0000020265579224,
        1.0
      ],
      "min": [
        0.0,
        0.0
      ],
      "type": "VEC2"
    },
    {
      "bufferView": 0,
      "byteOffset": 473052,
      "componentType": 5125,
      "count": 46950,
      "type": "SCALAR"
    },
    {
      "bufferView": 2,
      "byteOffset": 2624328,
      "componentType": 5126,
      "count": 21031,
      "max": [
        1.4748690128326416,
        1.4165040254592896,
        0.04326000064611435
      ],
      "min": [
        0.24696600437164307,
        -1.595289945602417,
        0.024399999529123306
      ],
      "type": "VEC3"
    },
    {
      "bufferView": 2,
      "byteOffset": 2876700,
      "componentType": 5126,
      "count": 21031,
      "max": [
        1.0,
        1.0,
        0.9904531240463257
      ],
      "min": [
        -1.0,
        -1.0,
        -1.0
      ],
      "type": "VEC3"
    },
    {
      "bufferView": 1,
      "byteOffset": 874776,
      "componentType": 5126,
      "count": 21031,
      "max": [
        1.2964390516281128,
        0.9582470059394836
      ],
      "min": [
        0.007660999894142151,
        -0.4564630091190338
      ],
      "type": "VEC2"
    },
    {
      "bufferView": 0,
      "byteOffset": 660852,
      "componentType": 5125,
      "count": 90324,
      "type": "SCALAR"
    },
    {
      "bufferView": 2,
      "byteOffset": 3129072,
      "componentType": 5126,
      "count": 20138,
      "max": [
        1.702707052230835,
        1.9201209545135498,
        0.047605000436306
      ],
      "min": [
        -0.853941023349762,
        -1.8771109580993652,
        -0.04178899899125099
      ],
      "type": "VEC3"
    },
    {
      "bufferView": 2,
      "byteOffset": 3370728,
      "componentType": 5126,
      "count": 20138,
      "max": [
        1.0,
        1.0,
        1.0
      ],
      "min": [
        -1.0,
        -1.0,
        -1.0
      ],
      "type": "VEC3"
    },
    {
      "bufferView": 1,
      "byteOffset": 1043024,
      "componentType": 5126,
      "count": 20138,
      "max": [
        1.0974299907684326,
        1.4588860273361206
      ],
      "min": [
        0.0012379999971017241,
        0.0
      ],
      "type": "VEC2"
    },
    {
      "bufferView": 0,
      "byteOffset": 1022148,
      "componentType": 5125,
      "count": 60981,
      "type": "SCALAR"
    },
    {
      "bufferView": 2,
      "byteOffset": 3612384,
      "componentType": 5126,
      "count": 388,
      "max": [
        2.756730079650879,
        1.9201209545135498,
        2.4195001125335693
      ],
      "min": [
        -0.853941023349762,
        -1.8771109580993652,
        -0.041085001081228256
      ],
      "type": "VEC3"
    },
    {
      "bufferView": 2,
      "byteOffset": 3617040,
      "componentType": 5126,
      "count": 388,
      "max": [
        0.9792972207069397,
        0.9807968139648438,
        0.9949668645858765
      ],
      "min": [
        -0.9983534216880798,
        -0.9814022183418274,
        -0.9307758212089539
      ],
      "type": "VEC3"
    },
    {
      "bufferView": 1,
      "byteOffset": 1204128,
      "componentType": 5126,
      "count": 388,
      "max": [
        1.0,
        1.4572010040283203
      ],
      "min": [
        0.0,
        0.0
      ],
      "type": "VEC2"
    },
    {
      "bufferView": 0,
      "byteOffset": 1266072,
      "componentType": 5125,
      "count": 1434,
      "type": "SCALAR"
    },
    {
      "bufferView": 2,
      "byteOffset": 3621696,
      "componentType": 5126,
      "count": 286,
      "max": [
        1.3223439455032349,
        1.4945060014724731,
        0.04056200012564659
      ],
      "min": [
        -0.7843189835548401,
        -1.4514960050582886,
        0.03029800020158291
      ],
      "type": "VEC3"
    },
    {
      "bufferView": 2,
      "byteOffset": 3625128,
      "componentType": 5126,
      "count": 286,
      "max": [
        0.29079553484916687,
        0.29070398211479187,
        1.0
      ],
      "min": [
        -0.29079553484916687,
        -0.29070398211479187,
        0.956785261631012
      ],
      "type": "VEC3"
    },
    {
      "bufferView": 1,
      "byteOffset": 1207232,
      "componentType": 5126,
      "count": 286,
      "max": [
        0.985925018787384,
        0.8410069942474365
      ],
      "min": [
        0.0007169999880716205,
        0.0009980000322684646
      ],
      "type": "VEC2"
    },
    {
      "bufferView": 0,
      "byteOffset": 1271808,
      "componentType": 5125,
      "count": 942,
      "type": "SCALAR"
    }
  ],
  "asset": {
    "extras": {
      "author": "Rasmus (https://sketchfab.com/Rasmus82)",
      "license": "CC-BY-4.0 (http://creativecommons.org/licenses/by/4.0/)",
      "source": "https://sketchfab.com/3d-models/laptop-7fbe17a5a5dd41538c81c4ad8a5083cf",
      "title": "Laptop"
    },
    "generator": "Sketchfab-12.65.0",
    "version": "2.0"
  },
  "bufferViews": [
    {
      "buffer": 0,
      "byteLength": 1275576,
      "name": "floatBufferViews",
      "target": 34963
    },
    {
      "buffer": 0,
      "byteLength": 1209520,
      "byteOffset": 1275576,
      "byteStride": 8,
      "name": "floatBufferViews",
      "target": 34962
    },
    {
      "buffer": 0,
      "byteLength": 3628560,
      "byteOffset": 2485096,
      "byteStride": 12,
      "name": "floatBufferViews",
      "target": 34962
    }
  ],
  "buffers": [
    {
      "byteLength": 6113656,
      "uri": "scene.bin"
    }
  ],
  "extensionsUsed": [
    "KHR_materials_clearcoat"
  ],
  "images": [
    {
      "uri": "textures/Buttons_baseColor.png"
    },
    {
      "uri": "textures/Keyboard_baseColor.jpeg"
    },
    {
      "uri": "textures/screen_baseColor.png"
    }
  ],
  "materials": [
    {
      "doubleSided": true,
      "name": "Buttons",
      "pbrMetallicRoughness": {
        "baseColorTexture": {
          "index": 0
        },
        "metallicFactor": 0.0,
        "roughnessFactor": 0.2084359363
      }
    },
    {
      "doubleSided": true,
      "name": "Keyboard",
      "pbrMetallicRoughness": {
        "baseColorFactor": [
          0.42652432918924815,
          0.42652432918924815,
          0.42652432918924815,
          1.0
        ],
        "baseColorTexture": {
          "index": 1
        },
        "metallicFactor": 0.0,
        "roughnessFactor": 0.46900985376408943
      }
    },
    {
      "doubleSided": true,
      "extensions": {
        "KHR_materials_clearcoat": {
          "clearcoatFactor": 0.32941455873246805,
          "clearcoatRoughnessFactor": 0.04
        }
      },
      "name": "LabTop_Base",
      "pbrMetallicRoughness": {
        "baseColorFactor": [
          0.006706412087102981,
          0.006706412087102981,
          0.006706412087102981,
          1.0
        ],
        "metallicFactor": 0.0,
        "roughnessFactor": 0.3536920013466631
      }
    },
    {
      "doubleSided": true,
      "name": "Material",
      "pbrMetallicRoughness": {
        "baseColorFactor": [
          0.0,
          0.08952226499372712,
          1.0,
          1.0
        ],
        "metallicFactor": 0.0,
        "roughnessFactor": 0.6
      }
    },
    {
      "doubleSided": true,
      "name": "Metal",
      "pbrMetallicRoughness": {
        "baseColorFactor": [
          0.5699014288,
          0.5699014288,
          0.5699014288,
          1.0
        ],
        "roughnessFactor": 0.1841152436
      }
    },
    {
      "doubleSided": true,
      "name": "Mouse_PAD",
      "pbrMetallicRoughness": {
        "baseColorFactor": [
          0.0028083002983065506,
          0.0028083002983065506,
          0.0028083002983065506,
          1.0
        ],
        "metallicFactor": 0.0,
        "roughnessFactor": 0.754269804480881
      }
    },
    {
      "doubleSided": true,
      "name": "screen",
      "pbrMetallicRoughness": {
        "baseColorTexture": {
          "index": 2
        },
        "metallicFactor": 0.0,
        "roughnessFactor": 0.6
      }
    }
  ],
  "meshes": [
    {
      "name": "Object_0",
      "primitives": [
        {
          "attributes": {
            "NORMAL": 1,
            "POSITION": 0,
            "TEXCOORD_0": 2
          },
          "indices": 3,
          "material": 0,
          "mode": 4
        }
      ]
    },
    {
      "name": "Object_1",
      "primitives": [
        {
          "attributes": {
            "NORMAL": 5,
            "POSITION": 4,
            "TEXCOORD_0": 6
          },
          "indices": 7,
          "material": 6,
          "mode": 4
        }
      ]
    },
    {
      "name": "Object_2",
      "primitives": [
        {
          "attributes": {
            "NORMAL": 9,
            "POSITION": 8,
            "TEXCOORD_0": 10
          },
          "indices": 11,
          "material": 3,
          "mode": 4
        }
      ]
    },
    {
      "name": "Object_3",
      "primitives": [
        {
          "attributes": {
            "NORMAL": 13,
            "POSITION": 12,
            "TEXCOORD_0": 14
          },
          "indices": 15,
          "material": 4,
          "mode": 4
        }
      ]
    },
    {
      "name": "Object_4",
      "primitives": [
        {
          "attributes": {
            "NORMAL": 17,
            "POSITION": 16,
            "TEXCOORD_0": 18
          },
          "indices": 19,
          "material": 1,
          "mode": 4
        }
      ]
    },
    {
      "name": "Object_5",
      "primitives": [
        {
          "attributes": {
            "NORMAL": 21,
            "POSITION": 20,
            "TEXCOORD_0": 22
          },
          "indices": 23,
          "material": 1,
          "mode": 4
        }
      ]
    },
    {
      "name": "Object_6",
      "primitives": [
        {
          "attributes": {
            "NORMAL": 25,
            "POSITION": 24,
            "TEXCOORD_0": 26
          },
          "indices": 27,
          "material": 1,
          "mode": 4
        }
      ]
    },
    {
      "name": "Object_7",
      "primitives": [
        {
          "attributes": {
            "NORMAL": 29,
            "POSITION": 28,
            "TEXCOORD_0": 30
          },
          "indices": 31,
          "material": 2,
          "mode": 4
        }
      ]
    },
    {
      "name": "Object_8",
      "primitives": [
        {
          "attributes": {
            "NORMAL": 33,
            "POSITION": 32,
            "TEXCOORD_0": 34
          },
          "indices": 35,
          "material": 2,
          "mode": 4
        }
      ]
    },
    {
      "name": "Object_9",
      "primitives": [
        {
          "attributes": {
            "NORMAL": 37,
            "POSITION": 36,
            "TEXCOORD_0": 38
          },
          "indices": 39,
          "material": 5,
          "mode": 4
        }
      ]
    }
  ],
  "nodes": [
    {
      "children": [
        1
      ],
      "matrix": [
        1.0,
        0.0,
        0.0,
        0.0,
        0.0,
        2.220446049250313e-16,
        -1.0,
        0.0,
        0.0,
        1.0,
        2.220446049250313e-16,
        0.0,
        0.0,
        0.0,
        0.0,
        1.0
      ],
      "name": "Sketchfab_model"
    },
    {
      "children": [
        2,
        3,
        4,
        5,
        6,
        7,
        8,
        9,
        10,
        11
      ],
      "name": "Labtop.obj.cleaner.materialmerger.gles"
    },
    {
      "mesh": 0,
      "name": "Object_2"
    },
    {
      "mesh": 1,
      "name": "Object_3"
    },
    {
      "mesh": 2,
      "name": "Object_4"
    },
    {
      "mesh": 3,
      "name": "Object_5"
    },
    {
      "mesh": 4,
      "name": "Object_6"
    },
    {
      "mesh": 5,
      "name": "Object_7"
    },
    {
      "mesh": 6,
      "name": "Object_8"
    },
    {
      "mesh": 7,
      "name": "Object_9"
    },
    {
      "mesh": 8,
      "name": "Object_10"
    },
    {
      "mesh": 9,
      "name": "Object_11"
    }
  ],
  "samplers": [
    {
      "magFilter": 9729,
      "minFilter": 9987,
      "wrapS": 10497,
      "wrapT": 10497
    }
  ],
  "scene": 0,
  "scenes": [
    {
      "name": "Sketchfab_Scene",
      "nodes": [
        0
      ]
    }
  ],
  "textures": [
    {
      "sampler": 0,
      "source": 0
    },
    {
      "sampler": 0,
      "source": 1
    },
    {
      "sampler": 0,
      "source": 2
    }
  ]
}
